<mxfile host="app.diagrams.net" agent="Mozilla/5.0 (Windows NT 10.0; Win64; x64) AppleWebKit/537.36 (KHTML, like Gecko) Chrome/139.0.0.0 Safari/537.36" version="28.1.0">
  <diagram name="1 oldal" id="z_whI3CqMtyiWSl8NjNq">
    <mxGraphModel dx="1019" dy="651" grid="1" gridSize="10" guides="1" tooltips="1" connect="1" arrows="1" fold="1" page="1" pageScale="1" pageWidth="827" pageHeight="1169" math="0" shadow="0">
      <root>
        <mxCell id="0" />
        <mxCell id="1" parent="0" />
        <mxCell id="6No9CcSIN49-iR3Nbec0-3" value="" style="rounded=0;whiteSpace=wrap;html=1;labelBackgroundColor=#4D9900;" vertex="1" parent="1">
          <mxGeometry x="44" y="74" width="740" height="1020" as="geometry" />
        </mxCell>
        <mxCell id="6No9CcSIN49-iR3Nbec0-4" value="Eger / Petőfi út 4." style="text;html=1;align=center;verticalAlign=middle;whiteSpace=wrap;rounded=0;strokeWidth=10;strokeColor=none;fontSize=30;" vertex="1" parent="1">
          <mxGeometry x="264" y="20" width="300" height="30" as="geometry" />
        </mxCell>
        <mxCell id="6No9CcSIN49-iR3Nbec0-5" value="" style="rounded=0;whiteSpace=wrap;html=1;" vertex="1" parent="1">
          <mxGeometry x="480" y="120" width="256" height="310" as="geometry" />
        </mxCell>
        <mxCell id="6No9CcSIN49-iR3Nbec0-7" value="" style="ellipse;whiteSpace=wrap;html=1;aspect=fixed;" vertex="1" parent="1">
          <mxGeometry x="70" y="390" width="40" height="40" as="geometry" />
        </mxCell>
        <mxCell id="6No9CcSIN49-iR3Nbec0-8" value="" style="ellipse;whiteSpace=wrap;html=1;aspect=fixed;" vertex="1" parent="1">
          <mxGeometry x="70" y="440" width="40" height="40" as="geometry" />
        </mxCell>
        <mxCell id="6No9CcSIN49-iR3Nbec0-9" value="" style="rounded=0;whiteSpace=wrap;html=1;" vertex="1" parent="1">
          <mxGeometry x="400" y="390" width="60" height="20" as="geometry" />
        </mxCell>
        <mxCell id="6No9CcSIN49-iR3Nbec0-21" value="" style="rounded=0;whiteSpace=wrap;html=1;" vertex="1" parent="1">
          <mxGeometry x="400" y="430" width="60" height="20" as="geometry" />
        </mxCell>
        <mxCell id="6No9CcSIN49-iR3Nbec0-27" value="" style="endArrow=none;html=1;rounded=0;entryX=0.996;entryY=0.652;entryDx=0;entryDy=0;entryPerimeter=0;" edge="1" parent="1">
          <mxGeometry width="50" height="50" relative="1" as="geometry">
            <mxPoint x="44" y="740" as="sourcePoint" />
            <mxPoint x="785.0399999999997" y="740.0400000000002" as="targetPoint" />
          </mxGeometry>
        </mxCell>
        <mxCell id="6No9CcSIN49-iR3Nbec0-31" value="" style="rounded=0;whiteSpace=wrap;html=1;" vertex="1" parent="1">
          <mxGeometry x="400" y="510" width="60" height="20" as="geometry" />
        </mxCell>
        <mxCell id="6No9CcSIN49-iR3Nbec0-32" value="" style="rounded=0;whiteSpace=wrap;html=1;" vertex="1" parent="1">
          <mxGeometry x="400" y="470" width="60" height="20" as="geometry" />
        </mxCell>
        <mxCell id="6No9CcSIN49-iR3Nbec0-33" value="" style="rounded=0;whiteSpace=wrap;html=1;" vertex="1" parent="1">
          <mxGeometry x="400" y="590" width="60" height="20" as="geometry" />
        </mxCell>
        <mxCell id="6No9CcSIN49-iR3Nbec0-34" value="" style="rounded=0;whiteSpace=wrap;html=1;" vertex="1" parent="1">
          <mxGeometry x="400" y="550" width="60" height="20" as="geometry" />
        </mxCell>
        <mxCell id="6No9CcSIN49-iR3Nbec0-35" value="" style="rounded=0;whiteSpace=wrap;html=1;" vertex="1" parent="1">
          <mxGeometry x="400" y="670" width="60" height="20" as="geometry" />
        </mxCell>
        <mxCell id="6No9CcSIN49-iR3Nbec0-36" value="" style="rounded=0;whiteSpace=wrap;html=1;" vertex="1" parent="1">
          <mxGeometry x="400" y="630" width="60" height="20" as="geometry" />
        </mxCell>
        <mxCell id="6No9CcSIN49-iR3Nbec0-37" value="" style="rounded=0;whiteSpace=wrap;html=1;" vertex="1" parent="1">
          <mxGeometry x="400" y="710" width="60" height="20" as="geometry" />
        </mxCell>
        <mxCell id="6No9CcSIN49-iR3Nbec0-38" value="" style="rounded=0;whiteSpace=wrap;html=1;" vertex="1" parent="1">
          <mxGeometry x="400" y="750" width="60" height="20" as="geometry" />
        </mxCell>
        <mxCell id="6No9CcSIN49-iR3Nbec0-39" value="" style="rounded=0;whiteSpace=wrap;html=1;" vertex="1" parent="1">
          <mxGeometry x="400" y="790" width="60" height="20" as="geometry" />
        </mxCell>
        <mxCell id="6No9CcSIN49-iR3Nbec0-40" value="" style="rounded=0;whiteSpace=wrap;html=1;" vertex="1" parent="1">
          <mxGeometry x="400" y="830" width="60" height="20" as="geometry" />
        </mxCell>
        <mxCell id="6No9CcSIN49-iR3Nbec0-41" value="" style="rounded=0;whiteSpace=wrap;html=1;" vertex="1" parent="1">
          <mxGeometry x="400" y="870" width="60" height="20" as="geometry" />
        </mxCell>
        <mxCell id="6No9CcSIN49-iR3Nbec0-42" value="" style="rounded=0;whiteSpace=wrap;html=1;" vertex="1" parent="1">
          <mxGeometry x="400" y="910" width="60" height="20" as="geometry" />
        </mxCell>
        <mxCell id="6No9CcSIN49-iR3Nbec0-43" value="" style="rounded=0;whiteSpace=wrap;html=1;" vertex="1" parent="1">
          <mxGeometry x="400" y="950" width="60" height="20" as="geometry" />
        </mxCell>
        <mxCell id="6No9CcSIN49-iR3Nbec0-44" value="" style="rounded=0;whiteSpace=wrap;html=1;" vertex="1" parent="1">
          <mxGeometry x="400" y="990" width="60" height="20" as="geometry" />
        </mxCell>
        <mxCell id="6No9CcSIN49-iR3Nbec0-45" value="" style="rounded=0;whiteSpace=wrap;html=1;" vertex="1" parent="1">
          <mxGeometry x="400" y="1030" width="60" height="20" as="geometry" />
        </mxCell>
        <mxCell id="6No9CcSIN49-iR3Nbec0-46" value="" style="endArrow=none;html=1;rounded=0;entryX=0.996;entryY=0.652;entryDx=0;entryDy=0;entryPerimeter=0;" edge="1" parent="1">
          <mxGeometry width="50" height="50" relative="1" as="geometry">
            <mxPoint x="44" y="939" as="sourcePoint" />
            <mxPoint x="785" y="939" as="targetPoint" />
          </mxGeometry>
        </mxCell>
        <mxCell id="6No9CcSIN49-iR3Nbec0-48" value="" style="ellipse;whiteSpace=wrap;html=1;aspect=fixed;" vertex="1" parent="1">
          <mxGeometry x="70" y="540" width="40" height="40" as="geometry" />
        </mxCell>
        <mxCell id="6No9CcSIN49-iR3Nbec0-49" value="" style="ellipse;whiteSpace=wrap;html=1;aspect=fixed;" vertex="1" parent="1">
          <mxGeometry x="70" y="490" width="40" height="40" as="geometry" />
        </mxCell>
        <mxCell id="6No9CcSIN49-iR3Nbec0-50" value="" style="ellipse;whiteSpace=wrap;html=1;aspect=fixed;" vertex="1" parent="1">
          <mxGeometry x="70" y="640" width="40" height="40" as="geometry" />
        </mxCell>
        <mxCell id="6No9CcSIN49-iR3Nbec0-51" value="" style="ellipse;whiteSpace=wrap;html=1;aspect=fixed;" vertex="1" parent="1">
          <mxGeometry x="70" y="590" width="40" height="40" as="geometry" />
        </mxCell>
        <mxCell id="6No9CcSIN49-iR3Nbec0-52" value="" style="ellipse;whiteSpace=wrap;html=1;aspect=fixed;" vertex="1" parent="1">
          <mxGeometry x="70" y="690" width="40" height="40" as="geometry" />
        </mxCell>
        <mxCell id="6No9CcSIN49-iR3Nbec0-54" value="" style="ellipse;whiteSpace=wrap;html=1;aspect=fixed;" vertex="1" parent="1">
          <mxGeometry x="710" y="690" width="40" height="40" as="geometry" />
        </mxCell>
        <mxCell id="6No9CcSIN49-iR3Nbec0-55" value="" style="ellipse;whiteSpace=wrap;html=1;aspect=fixed;" vertex="1" parent="1">
          <mxGeometry x="710" y="640" width="40" height="40" as="geometry" />
        </mxCell>
        <mxCell id="6No9CcSIN49-iR3Nbec0-56" value="" style="ellipse;whiteSpace=wrap;html=1;aspect=fixed;" vertex="1" parent="1">
          <mxGeometry x="710" y="590" width="40" height="40" as="geometry" />
        </mxCell>
        <mxCell id="6No9CcSIN49-iR3Nbec0-57" value="" style="ellipse;whiteSpace=wrap;html=1;aspect=fixed;" vertex="1" parent="1">
          <mxGeometry x="710" y="540" width="40" height="40" as="geometry" />
        </mxCell>
        <mxCell id="6No9CcSIN49-iR3Nbec0-58" value="" style="ellipse;whiteSpace=wrap;html=1;aspect=fixed;" vertex="1" parent="1">
          <mxGeometry x="710" y="490" width="40" height="40" as="geometry" />
        </mxCell>
      </root>
    </mxGraphModel>
  </diagram>
</mxfile>
